<?xml version="1.0" encoding="UTF-8"?>
<svg xmlns="http://www.w3.org/2000/svg" xmlns:xlink="http://www.w3.org/1999/xlink" width="33" height="28" viewBox="12 15 16 10" version="1.1">
<g id="surface1">
<path style=" stroke:none;fill-rule:nonzero;fill:rgb(0%,0%,0%);fill-opacity:1;" d="M 16.59375 13.695312 C 14.886719 14.171875 14.449219 14.566406 14.410156 15.660156 C 14.390625 16.078125 14.230469 16.636719 14.03125 16.933594 C 13.117188 18.324219 13.257812 20.230469 14.328125 21.304688 C 15.023438 22.019531 15.363281 21.882812 15.183594 20.949219 L 15.066406 20.273438 L 15.859375 20.730469 C 16.554688 21.105469 16.832031 21.503906 17.707031 23.234375 C 18.304688 24.425781 18.78125 25.636719 18.839844 26.175781 L 18.941406 27.070312 L 19.835938 26.929688 C 22.714844 26.492188 25.378906 24.484375 26.691406 21.703125 L 27.269531 20.449219 L 26.75 19.714844 C 26.054688 18.703125 23.929688 16.335938 22.933594 15.441406 C 21.285156 13.953125 18.445312 13.175781 16.59375 13.695312 Z M 20.867188 14.847656 C 22.039062 15.421875 24.148438 17.410156 25.636719 19.359375 L 26.511719 20.511719 L 25.855469 21.761719 C 24.742188 23.929688 22.277344 25.835938 20.171875 26.175781 C 19.535156 26.273438 19.476562 26.253906 19.476562 25.777344 C 19.476562 25.519531 19.019531 24.386719 18.464844 23.292969 C 17.507812 21.40625 17.46875 21.265625 17.789062 20.949219 C 18.203125 20.53125 18.066406 19.199219 17.449219 17.945312 C 17.03125 17.050781 15.582031 15.640625 15.285156 15.820312 C 14.964844 16 15.105469 15.164062 15.421875 14.90625 C 16.476562 14.011719 19.078125 13.992188 20.867188 14.847656 Z M 16.914062 18.324219 C 17.113281 18.742188 17.289062 19.378906 17.289062 19.773438 C 17.289062 20.351562 17.210938 20.46875 16.894531 20.46875 C 16.476562 20.46875 15.820312 19.914062 15.363281 19.160156 C 15.125 18.78125 15.125 18.78125 14.804688 19.160156 C 14.648438 19.378906 14.507812 19.734375 14.507812 19.953125 C 14.507812 20.292969 14.46875 20.3125 14.308594 20.074219 C 14.050781 19.675781 14.070312 18.363281 14.328125 17.828125 C 14.449219 17.589844 14.746094 17.191406 14.964844 16.933594 L 15.382812 16.496094 L 15.960938 17.03125 C 16.277344 17.351562 16.695312 17.925781 16.914062 18.324219 Z M 16.914062 18.324219 "/>
<path style=" stroke:none;fill-rule:nonzero;fill:rgb(0%,0%,0%);fill-opacity:1;" d="M 18.523438 15.421875 C 18.046875 15.761719 17.925781 16.65625 18.324219 17.050781 C 18.464844 17.191406 18.800781 17.289062 19.078125 17.289062 C 19.734375 17.289062 20.074219 16.953125 20.074219 16.277344 C 20.074219 15.800781 19.476562 15.105469 19.078125 15.105469 C 19.019531 15.105469 18.761719 15.242188 18.523438 15.421875 Z M 19.378906 16.296875 C 19.378906 16.734375 18.800781 16.65625 18.722656 16.238281 C 18.660156 15.960938 18.742188 15.878906 19.019531 15.9375 C 19.21875 15.980469 19.378906 16.136719 19.378906 16.296875 Z M 19.378906 16.296875 "/>
</g>
</svg>
